<mxfile host="Electron" modified="2024-04-13T08:24:51.705Z" agent="Mozilla/5.0 (Windows NT 10.0; Win64; x64) AppleWebKit/537.36 (KHTML, like Gecko) draw.io/24.1.0 Chrome/120.0.6099.109 Electron/28.1.0 Safari/537.36" etag="Ivk-qulb2rw9yDiRf_xF" version="24.1.0" type="device">
  <diagram name="Page-1" id="ewiQFCYMO7kfFWEZWEr_">
    <mxGraphModel dx="1050" dy="621" grid="1" gridSize="10" guides="1" tooltips="1" connect="1" arrows="1" fold="1" page="1" pageScale="1" pageWidth="850" pageHeight="1100" math="0" shadow="0">
      <root>
        <mxCell id="0" />
        <mxCell id="1" parent="0" />
        <mxCell id="k8bpthFjZjDl3JQaOCvV-3" value="" style="edgeStyle=orthogonalEdgeStyle;rounded=0;orthogonalLoop=1;jettySize=auto;html=1;" edge="1" parent="1" source="k8bpthFjZjDl3JQaOCvV-1" target="k8bpthFjZjDl3JQaOCvV-2">
          <mxGeometry relative="1" as="geometry" />
        </mxCell>
        <mxCell id="k8bpthFjZjDl3JQaOCvV-1" value="START" style="rounded=1;whiteSpace=wrap;html=1;" vertex="1" parent="1">
          <mxGeometry x="365" y="30" width="120" height="60" as="geometry" />
        </mxCell>
        <mxCell id="k8bpthFjZjDl3JQaOCvV-5" value="" style="edgeStyle=orthogonalEdgeStyle;rounded=0;orthogonalLoop=1;jettySize=auto;html=1;" edge="1" parent="1" source="k8bpthFjZjDl3JQaOCvV-2" target="k8bpthFjZjDl3JQaOCvV-4">
          <mxGeometry relative="1" as="geometry" />
        </mxCell>
        <mxCell id="k8bpthFjZjDl3JQaOCvV-2" value="number, i = 0" style="shape=parallelogram;perimeter=parallelogramPerimeter;whiteSpace=wrap;html=1;fixedSize=1;" vertex="1" parent="1">
          <mxGeometry x="365" y="150" width="120" height="60" as="geometry" />
        </mxCell>
        <mxCell id="k8bpthFjZjDl3JQaOCvV-10" value="" style="edgeStyle=orthogonalEdgeStyle;rounded=0;orthogonalLoop=1;jettySize=auto;html=1;" edge="1" parent="1" source="k8bpthFjZjDl3JQaOCvV-4" target="k8bpthFjZjDl3JQaOCvV-9">
          <mxGeometry relative="1" as="geometry" />
        </mxCell>
        <mxCell id="k8bpthFjZjDl3JQaOCvV-11" value="TRUE" style="edgeLabel;html=1;align=center;verticalAlign=middle;resizable=0;points=[];" vertex="1" connectable="0" parent="k8bpthFjZjDl3JQaOCvV-10">
          <mxGeometry x="-0.1405" y="-3" relative="1" as="geometry">
            <mxPoint as="offset" />
          </mxGeometry>
        </mxCell>
        <mxCell id="k8bpthFjZjDl3JQaOCvV-4" value="number == 50" style="rhombus;whiteSpace=wrap;html=1;" vertex="1" parent="1">
          <mxGeometry x="368" y="280" width="115" height="80" as="geometry" />
        </mxCell>
        <mxCell id="k8bpthFjZjDl3JQaOCvV-7" style="edgeStyle=orthogonalEdgeStyle;rounded=0;orthogonalLoop=1;jettySize=auto;html=1;exitX=1;exitY=0.5;exitDx=0;exitDy=0;entryX=0.995;entryY=0.153;entryDx=0;entryDy=0;entryPerimeter=0;" edge="1" parent="1" source="k8bpthFjZjDl3JQaOCvV-4" target="k8bpthFjZjDl3JQaOCvV-2">
          <mxGeometry relative="1" as="geometry" />
        </mxCell>
        <mxCell id="k8bpthFjZjDl3JQaOCvV-8" value="FALSE" style="edgeLabel;html=1;align=center;verticalAlign=middle;resizable=0;points=[];" vertex="1" connectable="0" parent="k8bpthFjZjDl3JQaOCvV-7">
          <mxGeometry x="0.003" y="-1" relative="1" as="geometry">
            <mxPoint as="offset" />
          </mxGeometry>
        </mxCell>
        <mxCell id="k8bpthFjZjDl3JQaOCvV-13" value="" style="edgeStyle=orthogonalEdgeStyle;rounded=0;orthogonalLoop=1;jettySize=auto;html=1;" edge="1" parent="1" source="k8bpthFjZjDl3JQaOCvV-9">
          <mxGeometry relative="1" as="geometry">
            <mxPoint x="425" y="580" as="targetPoint" />
          </mxGeometry>
        </mxCell>
        <mxCell id="k8bpthFjZjDl3JQaOCvV-17" value="TRUE" style="edgeLabel;html=1;align=center;verticalAlign=middle;resizable=0;points=[];" vertex="1" connectable="0" parent="k8bpthFjZjDl3JQaOCvV-13">
          <mxGeometry x="-0.0808" y="-4" relative="1" as="geometry">
            <mxPoint as="offset" />
          </mxGeometry>
        </mxCell>
        <mxCell id="k8bpthFjZjDl3JQaOCvV-24" style="edgeStyle=orthogonalEdgeStyle;rounded=0;orthogonalLoop=1;jettySize=auto;html=1;exitX=0;exitY=0.5;exitDx=0;exitDy=0;entryX=1;entryY=0.5;entryDx=0;entryDy=0;" edge="1" parent="1" source="k8bpthFjZjDl3JQaOCvV-9" target="k8bpthFjZjDl3JQaOCvV-23">
          <mxGeometry relative="1" as="geometry" />
        </mxCell>
        <mxCell id="k8bpthFjZjDl3JQaOCvV-25" value="FALSE" style="edgeLabel;html=1;align=center;verticalAlign=middle;resizable=0;points=[];" vertex="1" connectable="0" parent="k8bpthFjZjDl3JQaOCvV-24">
          <mxGeometry x="-0.0756" y="-2" relative="1" as="geometry">
            <mxPoint as="offset" />
          </mxGeometry>
        </mxCell>
        <mxCell id="k8bpthFjZjDl3JQaOCvV-9" value="i &amp;lt;= 50" style="shape=hexagon;perimeter=hexagonPerimeter2;whiteSpace=wrap;html=1;fixedSize=1;" vertex="1" parent="1">
          <mxGeometry x="365" y="420" width="120" height="80" as="geometry" />
        </mxCell>
        <mxCell id="k8bpthFjZjDl3JQaOCvV-22" style="edgeStyle=orthogonalEdgeStyle;rounded=0;orthogonalLoop=1;jettySize=auto;html=1;exitX=1;exitY=0.5;exitDx=0;exitDy=0;entryX=1;entryY=0.5;entryDx=0;entryDy=0;" edge="1" parent="1" target="k8bpthFjZjDl3JQaOCvV-9">
          <mxGeometry relative="1" as="geometry">
            <mxPoint x="485" y="730" as="sourcePoint" />
            <Array as="points">
              <mxPoint x="600" y="730" />
              <mxPoint x="600" y="460" />
            </Array>
          </mxGeometry>
        </mxCell>
        <mxCell id="k8bpthFjZjDl3JQaOCvV-15" value="i++" style="rounded=0;whiteSpace=wrap;html=1;" vertex="1" parent="1">
          <mxGeometry x="363" y="700" width="120" height="60" as="geometry" />
        </mxCell>
        <mxCell id="k8bpthFjZjDl3JQaOCvV-23" value="END" style="rounded=1;whiteSpace=wrap;html=1;" vertex="1" parent="1">
          <mxGeometry x="110" y="430" width="120" height="60" as="geometry" />
        </mxCell>
        <mxCell id="k8bpthFjZjDl3JQaOCvV-27" value="" style="edgeStyle=orthogonalEdgeStyle;rounded=0;orthogonalLoop=1;jettySize=auto;html=1;" edge="1" parent="1" source="k8bpthFjZjDl3JQaOCvV-26" target="k8bpthFjZjDl3JQaOCvV-15">
          <mxGeometry relative="1" as="geometry">
            <Array as="points">
              <mxPoint x="430" y="670" />
              <mxPoint x="430" y="670" />
            </Array>
          </mxGeometry>
        </mxCell>
        <mxCell id="k8bpthFjZjDl3JQaOCvV-26" value="i" style="shape=document;whiteSpace=wrap;html=1;boundedLbl=1;" vertex="1" parent="1">
          <mxGeometry x="365" y="580" width="120" height="80" as="geometry" />
        </mxCell>
      </root>
    </mxGraphModel>
  </diagram>
</mxfile>
